<svg width="1200" height="900" viewBox="0 0 1200 900" fill="none" xmlns="http://www.w3.org/2000/svg">
  <rect width="1200" height="900" fill="#F0E6DA"/>
  <rect x="102" y="116" width="996" height="668" rx="44" fill="url(#bg)"/>
  <ellipse cx="622" cy="692" rx="248" ry="56" fill="#2B201A" fill-opacity="0.14"/>
  <path d="M494 590C494 520.412 550.412 464 620 464H690C725.346 464 754 492.654 754 528V590H494Z" fill="#8E5D40"/>
  <path d="M520 454C520 382.203 578.203 324 650 324C721.797 324 780 382.203 780 454V534H520V454Z" fill="#A87452"/>
  <rect x="530" y="580" width="26" height="120" rx="12" fill="#47352C"/>
  <rect x="692" y="580" width="26" height="120" rx="12" fill="#47352C"/>
  <path d="M496 540C450 560 416 604 410 652" stroke="#47352C" stroke-width="20" stroke-linecap="round"/>
  <path d="M748 540C794 560 828 604 834 652" stroke="#47352C" stroke-width="20" stroke-linecap="round"/>
  <text x="160" y="182" fill="#FFF8F3" font-family="Arial, sans-serif" font-size="32" letter-spacing="8">VERONA CHAIR</text>
  <defs>
    <linearGradient id="bg" x1="102" y1="116" x2="1098" y2="784" gradientUnits="userSpaceOnUse">
      <stop stop-color="#D0A080"/>
      <stop offset="1" stop-color="#5C4335"/>
    </linearGradient>
  </defs>
</svg>
