<svg width="1200" height="900" viewBox="0 0 1200 900" fill="none" xmlns="http://www.w3.org/2000/svg">
  <rect width="1200" height="900" fill="#F5E7D8"/>
  <rect x="102" y="116" width="996" height="668" rx="44" fill="url(#bg)"/>
  <ellipse cx="610" cy="702" rx="324" ry="54" fill="#2B201A" fill-opacity="0.14"/>
  <path d="M408 548H736C800.065 548 852 599.935 852 664V674H492C445.608 674 408 636.392 408 590V548Z" fill="#C47D55"/>
  <path d="M434 470C434 390.471 498.471 326 578 326H700C744.183 326 780 361.817 780 406V548H434V470Z" fill="#E1976A"/>
  <rect x="784" y="548" width="70" height="116" rx="30" fill="#AF6E48"/>
  <rect x="460" y="664" width="248" height="24" rx="12" fill="#4B352A"/>
  <rect x="734" y="664" width="106" height="24" rx="12" fill="#4B352A"/>
  <text x="160" y="182" fill="#FFF8F3" font-family="Arial, sans-serif" font-size="32" letter-spacing="8">AURELIAN RECLINER</text>
  <defs>
    <linearGradient id="bg" x1="102" y1="116" x2="1098" y2="784" gradientUnits="userSpaceOnUse">
      <stop stop-color="#F3B086"/>
      <stop offset="1" stop-color="#91583A"/>
    </linearGradient>
  </defs>
</svg>
